<?xml version="1.0" encoding="UTF-8"?>
<svg width="24px" height="24px" viewBox="0 0 24 24" version="1.1" xmlns="http://www.w3.org/2000/svg" xmlns:xlink="http://www.w3.org/1999/xlink">
    <!-- Generator: Sketch 40.3 (33839) - http://www.bohemiancoding.com/sketch -->
    <title>Shape</title>
    <desc>Created with Sketch.</desc>
    <defs></defs>
    <g id="Home-Page" stroke="none" stroke-width="1" fill="none" fill-rule="evenodd">
        <g id="Desktop-HD" transform="translate(-1196.000000, -20.000000)" fill="#25313D">
            <g id="header">
                <g id="social-icons" transform="translate(1081.000000, 11.000000)">
                    <path d="M136.75,9 L117.25,9 C116.0125,9 115,10.0125 115,11.25 L115,30.75 C115,31.9875 116.0125,33 117.25,33 L136.75,33 C137.9875,33 139,31.9875 139,30.75 L139,11.25 C139,10.0125 137.9875,9 136.75,9 L136.75,9 Z M131.5,12.75 C131.5,12.3375 131.8375,12 132.25,12 L135.25,12 C135.6625,12 136,12.3375 136,12.75 L136,15.75 C136,16.1625 135.6625,16.5 135.25,16.5 L132.25,16.5 C131.8375,16.5 131.5,16.1625 131.5,15.75 L131.5,12.75 L131.5,12.75 Z M127,16.5 C129.48475,16.5 131.5,18.516 131.5,21 C131.5,23.484 129.484,25.5 127,25.5 C124.51525,25.5 122.5,23.484 122.5,21 C122.5,18.516 124.516,16.5 127,16.5 L127,16.5 Z M136,29.25 L136,29.25 C136,29.6625 135.6625,30 135.25,30 L118.75,30 C118.3375,30 118,29.6625 118,29.25 L118,29.25 L118,19.5 L119.65,19.5 C119.55175,19.983 119.5,20.48475 119.5,21 C119.5,25.14375 122.85625,28.5 127,28.5 C131.14375,28.5 134.5,25.14375 134.5,21 C134.5,20.484 134.44825,19.983 134.35,19.5 L136,19.5 L136,29.25 L136,29.25 Z" id="Shape"></path>
                </g>
            </g>
        </g>
    </g>
</svg>